<svg xmlns="http://www.w3.org/2000/svg" xmlns:xlink="http://www.w3.org/1999/xlink" width="1080" zoomAndPan="magnify" viewBox="0 0 810 809.999993" height="1080" preserveAspectRatio="xMidYMid meet" version="1.0"><defs><clipPath id="adc7002162"><path d="M 511.695312 224.8125 L 559.882812 224.8125 L 559.882812 250.789062 L 511.695312 250.789062 Z M 511.695312 224.8125 " clip-rule="nonzero"/></clipPath></defs><path fill="#a58f64" d="M 613.574219 220.910156 L 196.425781 220.910156 C 195.054688 220.910156 193.691406 220.976562 192.328125 221.109375 C 190.96875 221.246094 189.613281 221.445312 188.273438 221.710938 C 186.929688 221.980469 185.605469 222.3125 184.292969 222.707031 C 182.984375 223.105469 181.699219 223.566406 180.433594 224.089844 C 179.167969 224.613281 177.933594 225.199219 176.726562 225.84375 C 175.519531 226.488281 174.347656 227.191406 173.207031 227.953125 C 172.070312 228.710938 170.972656 229.527344 169.914062 230.394531 C 168.855469 231.261719 167.84375 232.179688 166.875 233.148438 C 165.910156 234.117188 164.992188 235.128906 164.121094 236.1875 C 163.253906 237.246094 162.4375 238.34375 161.679688 239.480469 C 160.917969 240.621094 160.214844 241.792969 159.570312 243 C 158.925781 244.207031 158.339844 245.441406 157.816406 246.707031 C 157.292969 247.96875 156.832031 249.257812 156.4375 250.566406 C 156.039062 251.875 155.707031 253.203125 155.4375 254.546875 C 155.171875 255.886719 154.972656 257.238281 154.835938 258.601562 C 154.703125 259.964844 154.636719 261.328125 154.636719 262.699219 L 154.636719 547.300781 C 154.636719 548.671875 154.703125 550.035156 154.835938 551.398438 C 154.972656 552.761719 155.171875 554.113281 155.4375 555.453125 C 155.707031 556.796875 156.039062 558.125 156.4375 559.433594 C 156.832031 560.742188 157.292969 562.03125 157.816406 563.292969 C 158.339844 564.558594 158.925781 565.792969 159.570312 567 C 160.214844 568.207031 160.917969 569.378906 161.679688 570.519531 C 162.441406 571.65625 163.253906 572.753906 164.121094 573.8125 C 164.992188 574.871094 165.910156 575.882812 166.875 576.851562 C 167.84375 577.820312 168.855469 578.738281 169.914062 579.605469 C 170.972656 580.472656 172.070312 581.289062 173.207031 582.046875 C 174.347656 582.808594 175.519531 583.511719 176.726562 584.15625 C 177.933594 584.800781 179.167969 585.386719 180.433594 585.910156 C 181.699219 586.433594 182.984375 586.894531 184.292969 587.292969 C 185.605469 587.6875 186.929688 588.019531 188.273438 588.289062 C 189.613281 588.554688 190.96875 588.753906 192.328125 588.890625 C 193.691406 589.023438 195.054688 589.089844 196.425781 589.089844 L 613.574219 589.089844 C 614.945312 589.089844 616.308594 589.023438 617.671875 588.890625 C 619.03125 588.753906 620.386719 588.554688 621.726562 588.289062 C 623.070312 588.019531 624.394531 587.6875 625.707031 587.292969 C 627.015625 586.894531 628.300781 586.433594 629.566406 585.910156 C 630.832031 585.386719 632.066406 584.800781 633.273438 584.15625 C 634.480469 583.511719 635.652344 582.808594 636.792969 582.046875 C 637.929688 581.289062 639.027344 580.472656 640.085938 579.605469 C 641.144531 578.738281 642.15625 577.820312 643.125 576.851562 C 644.089844 575.882812 645.011719 574.871094 645.878906 573.8125 C 646.746094 572.753906 647.5625 571.65625 648.320312 570.519531 C 649.082031 569.378906 649.785156 568.207031 650.429688 567 C 651.074219 565.792969 651.660156 564.558594 652.183594 563.292969 C 652.707031 562.03125 653.167969 560.742188 653.5625 559.433594 C 653.960938 558.125 654.292969 556.796875 654.5625 555.453125 C 654.828125 554.113281 655.027344 552.761719 655.164062 551.398438 C 655.296875 550.035156 655.363281 548.671875 655.363281 547.300781 L 655.363281 262.699219 C 655.363281 261.328125 655.296875 259.964844 655.164062 258.601562 C 655.027344 257.238281 654.828125 255.886719 654.5625 254.546875 C 654.292969 253.203125 653.960938 251.875 653.5625 250.566406 C 653.167969 249.257812 652.707031 247.96875 652.183594 246.707031 C 651.660156 245.441406 651.074219 244.207031 650.429688 243 C 649.785156 241.792969 649.082031 240.621094 648.320312 239.480469 C 647.5625 238.34375 646.746094 237.246094 645.878906 236.1875 C 645.007812 235.128906 644.089844 234.117188 643.125 233.148438 C 642.15625 232.179688 641.144531 231.261719 640.085938 230.394531 C 639.027344 229.527344 637.929688 228.710938 636.792969 227.953125 C 635.652344 227.191406 634.480469 226.488281 633.273438 225.84375 C 632.066406 225.199219 630.832031 224.613281 629.566406 224.089844 C 628.300781 223.566406 627.015625 223.105469 625.707031 222.707031 C 624.394531 222.3125 623.070312 221.980469 621.726562 221.710938 C 620.386719 221.445312 619.03125 221.246094 617.671875 221.109375 C 616.308594 220.976562 614.945312 220.910156 613.574219 220.910156 Z M 191.453125 279.632812 L 328.234375 374.257812 L 191.453125 524.660156 Z M 405 382.910156 L 224.589844 257.726562 L 585.410156 257.726562 Z M 358.425781 395.425781 L 384.011719 413.835938 C 385.527344 414.859375 387.109375 415.765625 388.757812 416.554688 C 390.40625 417.339844 392.101562 418.003906 393.851562 418.535156 C 395.597656 419.070312 397.375 419.476562 399.179688 419.746094 C 400.988281 420.015625 402.804688 420.152344 404.632812 420.152344 C 406.457031 420.152344 408.277344 420.015625 410.082031 419.746094 C 411.890625 419.476562 413.667969 419.070312 415.414062 418.535156 C 417.160156 418.003906 418.859375 417.339844 420.507812 416.554688 C 422.15625 415.765625 423.734375 414.859375 425.25 413.835938 L 450.839844 395.425781 L 593.878906 552.273438 L 216.121094 552.273438 Z M 481.398438 374.257812 L 618.175781 279.632812 L 618.175781 524.660156 Z M 481.398438 374.257812 " fill-opacity="1" fill-rule="nonzero"/><path fill="#a58f64" d="M 405 0 C 398.371094 0 391.746094 0.164062 385.128906 0.488281 C 378.507812 0.8125 371.898438 1.300781 365.304688 1.949219 C 358.707031 2.601562 352.128906 3.410156 345.574219 4.382812 C 339.019531 5.355469 332.488281 6.488281 325.988281 7.78125 C 319.488281 9.074219 313.023438 10.527344 306.59375 12.136719 C 300.164062 13.746094 293.777344 15.515625 287.433594 17.4375 C 281.09375 19.363281 274.800781 21.441406 268.558594 23.675781 C 262.320312 25.90625 256.136719 28.292969 250.011719 30.828125 C 243.890625 33.367188 237.832031 36.050781 231.839844 38.882812 C 225.847656 41.71875 219.929688 44.699219 214.085938 47.820312 C 208.238281 50.945312 202.472656 54.210938 196.789062 57.621094 C 191.101562 61.027344 185.503906 64.574219 179.992188 68.253906 C 174.484375 71.9375 169.066406 75.753906 163.742188 79.699219 C 158.417969 83.648438 153.195312 87.726562 148.070312 91.929688 C 142.945312 96.136719 137.929688 100.464844 133.019531 104.914062 C 128.109375 109.367188 123.308594 113.933594 118.621094 118.621094 C 113.933594 123.308594 109.367188 128.109375 104.914062 133.019531 C 100.464844 137.929688 96.136719 142.945312 91.929688 148.070312 C 87.726562 153.195312 83.648438 158.417969 79.699219 163.742188 C 75.753906 169.066406 71.9375 174.484375 68.253906 179.992188 C 64.574219 185.503906 61.027344 191.101562 57.621094 196.789062 C 54.210938 202.472656 50.945312 208.238281 47.820312 214.085938 C 44.699219 219.929688 41.71875 225.847656 38.882812 231.839844 C 36.050781 237.832031 33.367188 243.890625 30.828125 250.011719 C 28.292969 256.136719 25.90625 262.320312 23.675781 268.558594 C 21.441406 274.800781 19.363281 281.09375 17.4375 287.433594 C 15.515625 293.777344 13.746094 300.164062 12.136719 306.59375 C 10.527344 313.023438 9.074219 319.488281 7.78125 325.988281 C 6.488281 332.488281 5.355469 339.019531 4.382812 345.574219 C 3.410156 352.128906 2.601562 358.707031 1.949219 365.304688 C 1.300781 371.898438 0.8125 378.507812 0.488281 385.128906 C 0.164062 391.746094 0 398.371094 0 405 C 0 411.628906 0.164062 418.253906 0.488281 424.871094 C 0.8125 431.492188 1.300781 438.101562 1.949219 444.695312 C 2.601562 451.292969 3.410156 457.871094 4.382812 464.425781 C 5.355469 470.980469 6.488281 477.511719 7.78125 484.011719 C 9.074219 490.511719 10.527344 496.976562 12.136719 503.40625 C 13.746094 509.835938 15.515625 516.222656 17.4375 522.566406 C 19.363281 528.90625 21.441406 535.199219 23.675781 541.441406 C 25.90625 547.679688 28.292969 553.863281 30.828125 559.988281 C 33.367188 566.109375 36.050781 572.167969 38.882812 578.160156 C 41.71875 584.152344 44.699219 590.070312 47.820312 595.914062 C 50.945312 601.761719 54.210938 607.527344 57.621094 613.210938 C 61.027344 618.898438 64.574219 624.496094 68.253906 630.003906 C 71.9375 635.515625 75.753906 640.933594 79.699219 646.257812 C 83.648438 651.582031 87.726562 656.804688 91.929688 661.929688 C 96.136719 667.054688 100.464844 672.070312 104.914062 676.980469 C 109.367188 681.890625 113.933594 686.691406 118.621094 691.378906 C 123.308594 696.066406 128.109375 700.632812 133.019531 705.085938 C 137.929688 709.535156 142.945312 713.863281 148.070312 718.070312 C 153.195312 722.273438 158.417969 726.351562 163.742188 730.300781 C 169.066406 734.246094 174.484375 738.0625 179.992188 741.746094 C 185.503906 745.425781 191.101562 748.972656 196.789062 752.378906 C 202.472656 755.789062 208.238281 759.054688 214.085938 762.179688 C 219.929688 765.300781 225.847656 768.28125 231.839844 771.117188 C 237.832031 773.949219 243.890625 776.632812 250.011719 779.171875 C 256.136719 781.707031 262.320312 784.09375 268.558594 786.324219 C 274.800781 788.558594 281.09375 790.636719 287.433594 792.5625 C 293.777344 794.484375 300.164062 796.253906 306.59375 797.863281 C 313.023438 799.472656 319.488281 800.925781 325.988281 802.21875 C 332.488281 803.511719 339.019531 804.644531 345.574219 805.617188 C 352.128906 806.589844 358.707031 807.398438 365.304688 808.050781 C 371.898438 808.699219 378.507812 809.1875 385.128906 809.511719 C 391.746094 809.835938 398.371094 810 405 810 C 411.628906 810 418.253906 809.835938 424.871094 809.511719 C 431.492188 809.1875 438.101562 808.699219 444.695312 808.050781 C 451.292969 807.398438 457.871094 806.589844 464.425781 805.617188 C 470.980469 804.644531 477.511719 803.511719 484.011719 802.21875 C 490.511719 800.925781 496.976562 799.472656 503.40625 797.863281 C 509.835938 796.253906 516.222656 794.484375 522.566406 792.5625 C 528.90625 790.636719 535.199219 788.558594 541.441406 786.324219 C 547.679688 784.09375 553.863281 781.707031 559.988281 779.171875 C 566.109375 776.632812 572.167969 773.949219 578.160156 771.117188 C 584.152344 768.28125 590.070312 765.300781 595.914062 762.179688 C 601.761719 759.054688 607.527344 755.789062 613.210938 752.378906 C 618.898438 748.972656 624.496094 745.425781 630.003906 741.746094 C 635.515625 738.0625 640.933594 734.246094 646.257812 730.300781 C 651.582031 726.351562 656.804688 722.273438 661.929688 718.070312 C 667.054688 713.863281 672.070312 709.535156 676.980469 705.085938 C 681.890625 700.632812 686.691406 696.066406 691.378906 691.378906 C 696.066406 686.691406 700.632812 681.890625 705.085938 676.980469 C 709.535156 672.070312 713.863281 667.054688 718.070312 661.929688 C 722.273438 656.804688 726.351562 651.582031 730.300781 646.257812 C 734.246094 640.933594 738.0625 635.515625 741.746094 630.003906 C 745.425781 624.496094 748.972656 618.898438 752.378906 613.210938 C 755.789062 607.527344 759.054688 601.761719 762.179688 595.914062 C 765.300781 590.070312 768.28125 584.152344 771.117188 578.160156 C 773.949219 572.167969 776.632812 566.109375 779.171875 559.988281 C 781.707031 553.863281 784.09375 547.679688 786.324219 541.441406 C 788.558594 535.199219 790.636719 528.90625 792.5625 522.566406 C 794.484375 516.222656 796.253906 509.835938 797.863281 503.40625 C 799.472656 496.976562 800.925781 490.511719 802.21875 484.011719 C 803.511719 477.511719 804.644531 470.980469 805.617188 464.425781 C 806.589844 457.871094 807.398438 451.292969 808.050781 444.695312 C 808.699219 438.101562 809.1875 431.492188 809.511719 424.871094 C 809.835938 418.253906 810 411.628906 810 405 C 810 398.371094 809.835938 391.746094 809.511719 385.128906 C 809.1875 378.507812 808.699219 371.898438 808.050781 365.304688 C 807.398438 358.707031 806.589844 352.128906 805.617188 345.574219 C 804.644531 339.019531 803.511719 332.488281 802.21875 325.988281 C 800.925781 319.488281 799.472656 313.023438 797.863281 306.59375 C 796.253906 300.164062 794.484375 293.777344 792.5625 287.433594 C 790.636719 281.09375 788.558594 274.800781 786.324219 268.558594 C 784.09375 262.320312 781.707031 256.136719 779.171875 250.011719 C 776.632812 243.890625 773.949219 237.832031 771.117188 231.839844 C 768.28125 225.847656 765.300781 219.929688 762.179688 214.085938 C 759.054688 208.238281 755.789062 202.472656 752.378906 196.789062 C 748.972656 191.101562 745.425781 185.503906 741.746094 179.992188 C 738.0625 174.484375 734.246094 169.066406 730.300781 163.742188 C 726.351562 158.417969 722.273438 153.195312 718.070312 148.070312 C 713.863281 142.945312 709.535156 137.929688 705.085938 133.019531 C 700.632812 128.109375 696.066406 123.308594 691.378906 118.621094 C 686.691406 113.933594 681.890625 109.367188 676.980469 104.914062 C 672.070312 100.464844 667.054688 96.136719 661.929688 91.929688 C 656.804688 87.726562 651.582031 83.648438 646.257812 79.699219 C 640.933594 75.753906 635.515625 71.9375 630.003906 68.253906 C 624.496094 64.574219 618.898438 61.027344 613.210938 57.621094 C 607.527344 54.210938 601.761719 50.945312 595.914062 47.820312 C 590.070312 44.699219 584.152344 41.71875 578.160156 38.882812 C 572.167969 36.050781 566.109375 33.367188 559.988281 30.828125 C 553.863281 28.292969 547.679688 25.90625 541.441406 23.675781 C 535.199219 21.441406 528.90625 19.363281 522.566406 17.4375 C 516.222656 15.515625 509.835938 13.746094 503.40625 12.136719 C 496.976562 10.527344 490.511719 9.074219 484.011719 7.78125 C 477.511719 6.488281 470.980469 5.355469 464.425781 4.382812 C 457.871094 3.410156 451.292969 2.601562 444.695312 1.949219 C 438.101562 1.300781 431.492188 0.8125 424.871094 0.488281 C 418.253906 0.164062 411.628906 0 405 0 Z M 405 773.183594 C 398.972656 773.183594 392.953125 773.035156 386.933594 772.738281 C 380.914062 772.441406 374.910156 772 368.910156 771.410156 C 362.914062 770.816406 356.9375 770.082031 350.976562 769.195312 C 345.015625 768.3125 339.082031 767.28125 333.171875 766.105469 C 327.261719 764.929688 321.382812 763.613281 315.539062 762.148438 C 309.695312 760.683594 303.886719 759.078125 298.121094 757.328125 C 292.355469 755.578125 286.636719 753.6875 280.964844 751.660156 C 275.289062 749.628906 269.667969 747.460938 264.101562 745.15625 C 258.535156 742.847656 253.027344 740.410156 247.582031 737.832031 C 242.136719 735.257812 236.753906 732.546875 231.441406 729.707031 C 226.125 726.867188 220.886719 723.898438 215.714844 720.800781 C 210.546875 717.703125 205.460938 714.480469 200.449219 711.132812 C 195.4375 707.785156 190.515625 704.316406 185.675781 700.726562 C 180.835938 697.136719 176.085938 693.429688 171.429688 689.609375 C 166.769531 685.785156 162.207031 681.851562 157.746094 677.804688 C 153.28125 673.757812 148.917969 669.605469 144.65625 665.34375 C 140.394531 661.082031 136.242188 656.71875 132.195312 652.253906 C 128.148438 647.792969 124.214844 643.230469 120.390625 638.570312 C 116.570312 633.914062 112.863281 629.164062 109.273438 624.324219 C 105.683594 619.484375 102.214844 614.5625 98.867188 609.550781 C 95.519531 604.539062 92.296875 599.453125 89.199219 594.28125 C 86.101562 589.113281 83.132812 583.875 80.292969 578.558594 C 77.453125 573.246094 74.742188 567.863281 72.167969 562.417969 C 69.589844 556.972656 67.148438 551.464844 64.84375 545.898438 C 62.539062 540.328125 60.371094 534.710938 58.339844 529.035156 C 56.3125 523.363281 54.421875 517.644531 52.671875 511.878906 C 50.921875 506.113281 49.316406 500.304688 47.851562 494.460938 C 46.386719 488.617188 45.066406 482.738281 43.894531 476.828125 C 42.71875 470.917969 41.6875 464.984375 40.804688 459.023438 C 39.917969 453.0625 39.183594 447.085938 38.589844 441.089844 C 38 435.089844 37.558594 429.085938 37.261719 423.066406 C 36.964844 417.046875 36.816406 411.027344 36.816406 405 C 36.816406 398.972656 36.964844 392.953125 37.261719 386.933594 C 37.558594 380.914062 38 374.910156 38.589844 368.910156 C 39.183594 362.914062 39.917969 356.9375 40.804688 350.976562 C 41.6875 345.015625 42.71875 339.082031 43.894531 333.171875 C 45.066406 327.261719 46.386719 321.382812 47.851562 315.539062 C 49.316406 309.695312 50.921875 303.886719 52.671875 298.121094 C 54.421875 292.355469 56.3125 286.636719 58.339844 280.964844 C 60.371094 275.289062 62.539062 269.667969 64.84375 264.101562 C 67.148438 258.535156 69.589844 253.027344 72.167969 247.582031 C 74.742188 242.136719 77.453125 236.753906 80.292969 231.441406 C 83.132812 226.125 86.101562 220.886719 89.199219 215.714844 C 92.296875 210.546875 95.519531 205.460938 98.867188 200.449219 C 102.214844 195.4375 105.683594 190.515625 109.273438 185.675781 C 112.863281 180.835938 116.570312 176.085938 120.390625 171.429688 C 124.214844 166.769531 128.148438 162.207031 132.195312 157.746094 C 136.242188 153.28125 140.394531 148.917969 144.65625 144.65625 C 148.917969 140.394531 153.28125 136.242188 157.746094 132.195312 C 162.207031 128.148438 166.769531 124.214844 171.429688 120.390625 C 176.085938 116.570312 180.835938 112.863281 185.675781 109.273438 C 190.515625 105.683594 195.4375 102.214844 200.449219 98.867188 C 205.460938 95.519531 210.546875 92.296875 215.714844 89.199219 C 220.886719 86.101562 226.125 83.132812 231.441406 80.292969 C 236.753906 77.453125 242.136719 74.742188 247.582031 72.167969 C 253.027344 69.589844 258.535156 67.148438 264.101562 64.84375 C 269.667969 62.539062 275.289062 60.371094 280.964844 58.339844 C 286.636719 56.3125 292.355469 54.421875 298.121094 52.671875 C 303.886719 50.921875 309.695312 49.316406 315.539062 47.851562 C 321.382812 46.386719 327.261719 45.066406 333.171875 43.894531 C 339.082031 42.71875 345.015625 41.6875 350.976562 40.804688 C 356.9375 39.917969 362.914062 39.183594 368.910156 38.589844 C 374.910156 38 380.914062 37.558594 386.933594 37.261719 C 392.953125 36.964844 398.972656 36.816406 405 36.816406 C 411.027344 36.816406 417.046875 36.964844 423.066406 37.261719 C 429.085938 37.558594 435.089844 38 441.089844 38.589844 C 447.085938 39.183594 453.0625 39.917969 459.023438 40.804688 C 464.984375 41.6875 470.917969 42.71875 476.828125 43.894531 C 482.738281 45.066406 488.617188 46.386719 494.460938 47.851562 C 500.304688 49.316406 506.113281 50.921875 511.878906 52.671875 C 517.644531 54.421875 523.363281 56.3125 529.035156 58.339844 C 534.710938 60.371094 540.328125 62.539062 545.898438 64.84375 C 551.464844 67.148438 556.972656 69.589844 562.417969 72.167969 C 567.863281 74.742188 573.246094 77.453125 578.558594 80.292969 C 583.875 83.132812 589.113281 86.101562 594.28125 89.199219 C 599.453125 92.296875 604.539062 95.519531 609.550781 98.867188 C 614.5625 102.214844 619.484375 105.683594 624.324219 109.273438 C 629.164062 112.863281 633.914062 116.570312 638.570312 120.390625 C 643.230469 124.214844 647.792969 128.148438 652.253906 132.195312 C 656.71875 136.242188 661.082031 140.394531 665.34375 144.65625 C 669.605469 148.917969 673.757812 153.28125 677.804688 157.746094 C 681.851562 162.207031 685.785156 166.769531 689.609375 171.429688 C 693.429688 176.085938 697.136719 180.835938 700.726562 185.675781 C 704.316406 190.515625 707.785156 195.4375 711.132812 200.449219 C 714.480469 205.460938 717.703125 210.546875 720.800781 215.714844 C 723.898438 220.886719 726.867188 226.125 729.707031 231.441406 C 732.546875 236.753906 735.257812 242.136719 737.832031 247.582031 C 740.410156 253.027344 742.847656 258.535156 745.15625 264.101562 C 747.460938 269.667969 749.628906 275.289062 751.660156 280.964844 C 753.6875 286.636719 755.578125 292.355469 757.328125 298.121094 C 759.078125 303.886719 760.683594 309.695312 762.148438 315.539062 C 763.613281 321.382812 764.929688 327.261719 766.105469 333.171875 C 767.28125 339.082031 768.3125 345.015625 769.195312 350.976562 C 770.082031 356.9375 770.816406 362.914062 771.410156 368.910156 C 772 374.910156 772.441406 380.914062 772.738281 386.933594 C 773.035156 392.953125 773.183594 398.972656 773.183594 405 C 773.183594 411.027344 773.035156 417.046875 772.738281 423.066406 C 772.441406 429.085938 772 435.089844 771.410156 441.089844 C 770.816406 447.085938 770.082031 453.0625 769.195312 459.023438 C 768.3125 464.984375 767.28125 470.917969 766.105469 476.828125 C 764.933594 482.738281 763.613281 488.617188 762.148438 494.460938 C 760.683594 500.304688 759.078125 506.113281 757.328125 511.878906 C 755.578125 517.644531 753.6875 523.363281 751.660156 529.035156 C 749.628906 534.710938 747.460938 540.332031 745.15625 545.898438 C 742.851562 551.464844 740.410156 556.972656 737.832031 562.417969 C 735.257812 567.863281 732.546875 573.246094 729.707031 578.558594 C 726.867188 583.875 723.898438 589.113281 720.800781 594.285156 C 717.703125 599.453125 714.480469 604.539062 711.132812 609.550781 C 707.785156 614.5625 704.316406 619.484375 700.726562 624.324219 C 697.136719 629.164062 693.429688 633.914062 689.609375 638.570312 C 685.785156 643.230469 681.851562 647.792969 677.804688 652.253906 C 673.757812 656.71875 669.605469 661.082031 665.34375 665.34375 C 661.082031 669.605469 656.71875 673.757812 652.253906 677.804688 C 647.792969 681.851562 643.230469 685.785156 638.570312 689.609375 C 633.914062 693.429688 629.164062 697.136719 624.324219 700.726562 C 619.484375 704.316406 614.5625 707.785156 609.550781 711.132812 C 604.539062 714.480469 599.453125 717.703125 594.285156 720.800781 C 589.113281 723.898438 583.875 726.867188 578.558594 729.707031 C 573.246094 732.546875 567.863281 735.257812 562.417969 737.832031 C 556.972656 740.410156 551.464844 742.851562 545.898438 745.15625 C 540.328125 747.460938 534.710938 749.628906 529.035156 751.660156 C 523.363281 753.6875 517.644531 755.578125 511.878906 757.328125 C 506.113281 759.078125 500.304688 760.683594 494.460938 762.148438 C 488.617188 763.613281 482.738281 764.933594 476.828125 766.105469 C 470.917969 767.28125 464.984375 768.3125 459.023438 769.195312 C 453.0625 770.082031 447.085938 770.816406 441.089844 771.410156 C 435.089844 772 429.085938 772.441406 423.066406 772.738281 C 417.046875 773.035156 411.027344 773.183594 405 773.183594 Z M 405 773.183594 " fill-opacity="1" fill-rule="nonzero"/><g clip-path="url(#adc7002162)"><path fill="#a58f64" d="M 511.695312 224.8125 L 559.890625 224.8125 L 559.890625 250.789062 L 511.695312 250.789062 Z M 511.695312 224.8125 " fill-opacity="1" fill-rule="nonzero"/></g></svg>