<svg xmlns="http://www.w3.org/2000/svg" xmlns:xlink="http://www.w3.org/1999/xlink" width="1080" zoomAndPan="magnify" viewBox="0 0 810 809.999993" height="1080" preserveAspectRatio="xMidYMid meet" version="1.0"><defs><clipPath id="e6f30a69fc"><path d="M 434.828125 5.980469 L 470 5.980469 L 470 30.5 L 434.828125 30.5 Z M 434.828125 5.980469 " clip-rule="nonzero"/></clipPath></defs><path fill="#a58f64" d="M 621.273438 810 L 188.726562 810 C 84.664062 810 0 725.335938 0 621.273438 L 0 188.726562 C 0 84.664062 84.664062 0 188.726562 0 L 621.273438 0 C 725.335938 0 810 84.664062 810 188.726562 L 810 621.273438 C 810 725.335938 725.335938 810 621.273438 810 Z M 188.726562 31.214844 C 101.875 31.214844 31.214844 101.875 31.214844 188.726562 L 31.214844 621.273438 C 31.214844 708.121094 101.875 778.785156 188.726562 778.785156 L 621.273438 778.785156 C 708.121094 778.785156 778.785156 708.125 778.785156 621.273438 L 778.785156 188.726562 C 778.785156 101.875 708.125 31.214844 621.273438 31.214844 Z M 188.726562 31.214844 " fill-opacity="1" fill-rule="nonzero"/><path fill="#a58f64" d="M 576.269531 728.96875 L 233.730469 728.96875 C 149.53125 728.96875 81.03125 660.46875 81.03125 576.269531 L 81.03125 306.675781 L 241.222656 306.675781 L 241.222656 337.890625 L 112.246094 337.890625 L 112.246094 576.269531 C 112.246094 643.257812 166.742188 697.753906 233.730469 697.753906 L 576.269531 697.753906 C 643.257812 697.753906 697.753906 643.257812 697.753906 576.269531 L 697.753906 337.890625 L 568.777344 337.890625 L 568.777344 306.675781 L 728.96875 306.675781 L 728.96875 576.269531 C 728.96875 660.46875 660.46875 728.96875 576.269531 728.96875 Z M 576.269531 728.96875 " fill-opacity="1" fill-rule="nonzero"/><path fill="#a58f64" d="M 405 581.960938 C 298.816406 581.960938 212.433594 495.574219 212.433594 389.394531 C 212.433594 283.210938 298.816406 196.828125 405 196.828125 C 511.179688 196.828125 597.566406 283.210938 597.566406 389.394531 C 597.566406 495.574219 511.179688 581.960938 405 581.960938 Z M 405 228.039062 C 316.03125 228.039062 243.648438 300.421875 243.648438 389.394531 C 243.648438 478.363281 316.03125 550.746094 405 550.746094 C 493.96875 550.746094 566.351562 478.363281 566.351562 389.394531 C 566.351562 300.425781 493.96875 228.039062 405 228.039062 Z M 405 228.039062 " fill-opacity="1" fill-rule="nonzero"/><path fill="#a58f64" d="M 661.691406 201.207031 C 631.804688 201.207031 607.488281 176.890625 607.488281 147 C 607.488281 117.113281 631.804688 92.796875 661.691406 92.796875 C 691.578125 92.796875 715.894531 117.113281 715.894531 147 C 715.894531 176.890625 691.578125 201.207031 661.691406 201.207031 Z M 661.691406 124.007812 C 649.015625 124.007812 638.703125 134.324219 638.703125 147 C 638.703125 159.675781 649.015625 169.992188 661.691406 169.992188 C 674.367188 169.992188 684.679688 159.675781 684.679688 147 C 684.679688 134.324219 674.367188 124.007812 661.691406 124.007812 Z M 661.691406 124.007812 " fill-opacity="1" fill-rule="nonzero"/><g clip-path="url(#e6f30a69fc)"><path fill="#a58f64" d="M 434.828125 5.980469 L 469.976562 5.980469 L 469.976562 30.5 L 434.828125 30.5 Z M 434.828125 5.980469 " fill-opacity="1" fill-rule="nonzero"/></g></svg>