<svg xmlns="http://www.w3.org/2000/svg" xmlns:xlink="http://www.w3.org/1999/xlink" width="1080" zoomAndPan="magnify" viewBox="0 0 810 809.999993" height="1080" preserveAspectRatio="xMidYMid meet" version="1.0"><defs><clipPath id="f0bb8881ef"><path d="M 649.289062 6.757812 L 699 6.757812 L 699 38.964844 L 649.289062 38.964844 Z M 649.289062 6.757812 " clip-rule="nonzero"/></clipPath></defs><path fill="#a58f64" d="M 143.777344 0 L 665.746094 0 C 705.605469 0 741.667969 16.132812 767.769531 42.230469 C 793.867188 68.332031 810 104.394531 810 143.777344 L 810 665.746094 C 810 705.605469 793.867188 741.667969 767.769531 767.769531 C 741.667969 793.867188 705.605469 810 665.746094 810 L 143.777344 810 C 104.394531 810 68.332031 793.867188 42.230469 767.769531 C 16.132812 741.667969 0 705.605469 0 665.746094 L 0 143.777344 C 0 104.394531 16.132812 68.332031 42.230469 42.230469 C 68.332031 16.132812 104.394531 0 143.777344 0 Z M 665.746094 42.230469 L 143.777344 42.230469 C 115.78125 42.230469 90.632812 53.621094 72.125 72.125 C 53.621094 90.632812 42.230469 115.78125 42.230469 143.777344 L 42.230469 665.746094 C 42.230469 693.742188 53.621094 719.367188 72.125 737.875 C 90.632812 755.90625 115.78125 767.769531 143.777344 767.769531 L 665.746094 767.769531 C 693.742188 767.769531 719.367188 755.90625 737.875 737.875 C 755.90625 719.367188 767.769531 693.742188 767.769531 665.746094 L 767.769531 143.777344 C 767.769531 115.78125 755.90625 90.632812 737.875 72.125 C 719.367188 53.621094 693.742188 42.230469 665.746094 42.230469 Z M 665.746094 42.230469 " fill-opacity="1" fill-rule="nonzero"/><path fill="#a58f64" d="M 148.050781 280.914062 L 226.34375 280.914062 C 235.359375 280.914062 243.425781 284.234375 249.121094 289.929688 C 255.289062 295.625 259.5625 303.691406 259.5625 313.179688 L 259.5625 676.1875 C 259.5625 685.203125 255.289062 693.742188 249.121094 699.4375 C 243.425781 705.132812 235.359375 708.453125 226.34375 708.453125 L 148.050781 708.453125 C 139.035156 708.453125 130.964844 705.132812 125.273438 699.4375 C 118.628906 693.742188 114.832031 685.203125 114.832031 676.1875 L 114.832031 313.179688 C 114.832031 303.691406 118.628906 295.625 125.273438 289.929688 C 130.964844 284.234375 139.035156 280.914062 148.050781 280.914062 Z M 217.328125 323.144531 L 157.066406 323.144531 L 157.066406 666.222656 L 217.328125 666.222656 Z M 217.328125 323.144531 " fill-opacity="1" fill-rule="nonzero"/><path fill="#a58f64" d="M 345.921875 279.964844 L 424.21875 279.964844 C 433.234375 279.964844 441.300781 283.761719 446.996094 288.980469 C 453.636719 295.148438 457.433594 303.214844 457.433594 312.230469 L 457.433594 315.078125 C 474.515625 303.691406 493.972656 295.148438 513.902344 290.402344 C 541.421875 283.761719 570.367188 283.285156 596.941406 289.457031 C 623.988281 296.097656 649.140625 310.332031 666.695312 332.636719 C 684.253906 353.988281 694.691406 382.933594 694.691406 419 L 694.691406 675.238281 C 694.691406 684.253906 690.894531 692.320312 684.726562 698.488281 C 679.035156 703.707031 670.964844 707.503906 661.949219 707.503906 L 583.179688 707.503906 C 574.640625 707.503906 566.574219 703.707031 560.402344 698.488281 C 554.234375 692.320312 550.4375 684.253906 550.4375 675.238281 L 550.4375 472.617188 C 550.4375 453.636719 539.527344 441.773438 525.765625 436.554688 C 519.597656 434.183594 512.476562 433.234375 505.835938 433.234375 C 498.71875 433.234375 491.597656 434.65625 484.957031 437.03125 C 469.296875 442.722656 457.433594 454.585938 457.433594 472.617188 L 457.433594 676.1875 C 457.433594 685.203125 453.636719 693.742188 446.996094 699.4375 C 441.300781 705.132812 433.234375 708.453125 424.21875 708.453125 L 345.921875 708.453125 C 336.90625 708.453125 328.839844 705.132812 323.144531 699.4375 C 316.976562 693.742188 312.707031 685.203125 312.707031 676.1875 L 312.707031 312.230469 C 312.707031 303.214844 316.976562 295.148438 323.144531 288.980469 C 328.839844 283.761719 336.90625 279.964844 345.921875 279.964844 Z M 415.203125 322.195312 L 354.9375 322.195312 L 354.9375 666.222656 L 415.203125 666.222656 L 415.203125 472.617188 C 415.203125 434.183594 439.402344 408.558594 470.71875 397.171875 C 481.632812 393.375 493.496094 391.476562 505.359375 391 C 517.222656 391 529.085938 392.898438 540.472656 397.171875 C 569.894531 408.085938 592.671875 432.757812 592.671875 472.617188 L 592.671875 665.273438 L 652.460938 665.273438 L 652.460938 419 C 652.460938 393.375 645.34375 373.445312 633.953125 359.210938 C 622.089844 344.5 605.484375 335.007812 586.976562 330.261719 C 567.046875 325.519531 545.21875 325.992188 524.339844 331.210938 C 495.871094 338.332031 470.246094 353.515625 453.636719 376.292969 C 449.84375 381.984375 443.671875 385.308594 436.082031 385.308594 C 424.691406 385.308594 415.203125 375.816406 415.203125 364.429688 Z M 415.203125 322.195312 " fill-opacity="1" fill-rule="nonzero"/><path fill="#a58f64" d="M 186.960938 101.070312 C 208.3125 101.070312 227.769531 110.085938 241.527344 123.847656 C 255.289062 137.609375 263.832031 157.066406 263.832031 177.945312 C 263.832031 199.296875 255.289062 218.277344 241.527344 232.511719 C 227.769531 246.273438 208.3125 254.816406 186.960938 254.816406 C 166.082031 254.816406 146.625 246.273438 132.863281 232.511719 C 119.105469 218.277344 110.5625 199.296875 110.5625 177.945312 C 110.5625 157.066406 119.105469 137.609375 132.863281 123.847656 C 146.625 110.085938 166.082031 101.070312 186.960938 101.070312 Z M 211.632812 153.742188 C 205.464844 147.574219 196.925781 143.777344 186.960938 143.777344 C 177.46875 143.777344 168.929688 147.574219 162.757812 153.742188 C 156.589844 159.914062 152.792969 168.453125 152.792969 177.945312 C 152.792969 187.433594 156.589844 196.449219 162.757812 202.617188 C 168.929688 208.789062 177.46875 212.582031 186.960938 212.582031 C 196.925781 212.582031 205.464844 208.789062 211.632812 202.617188 C 217.804688 196.449219 221.597656 187.433594 221.597656 177.945312 C 221.597656 168.453125 217.804688 159.914062 211.632812 153.742188 Z M 211.632812 153.742188 " fill-opacity="1" fill-rule="nonzero"/><g clip-path="url(#f0bb8881ef)"><path fill="#a58f64" d="M 649.289062 6.757812 L 698.988281 6.757812 L 698.988281 38.964844 L 649.289062 38.964844 Z M 649.289062 6.757812 " fill-opacity="1" fill-rule="nonzero"/></g></svg>