<svg xmlns="http://www.w3.org/2000/svg" xmlns:xlink="http://www.w3.org/1999/xlink" width="1080" zoomAndPan="magnify" viewBox="0 0 810 809.999993" height="1080" preserveAspectRatio="xMidYMid meet" version="1.0"><defs><clipPath id="8e05db07b9"><path d="M 360.398438 283.5 L 526.5 283.5 L 526.5 425.675781 L 360.398438 425.675781 Z M 360.398438 283.5 " clip-rule="nonzero"/></clipPath></defs><path fill="#a58f64" d="M 701.25 236.136719 C 640.246094 219.117188 572.839844 278.402344 516.535156 298.371094 C 554.589844 248.253906 607.207031 199.117188 622.058594 135.6875 C 638.058594 67.359375 584.871094 2.707031 514.332031 2.261719 C 472.03125 1.996094 435.003906 24.890625 415.21875 59.046875 C 395.863281 24.644531 359.136719 1.289062 316.839844 1.015625 C 259.203125 0.640625 209.398438 45.796875 205.152344 103.5625 C 200.398438 168.242188 262.851562 236.792969 297.296875 286.34375 C 241.429688 263.019531 192.820312 182.667969 113.074219 207.644531 C 53.164062 226.402344 14.265625 283.457031 28.792969 344.53125 C 38.585938 385.6875 69.621094 416.210938 107.5 427.320312 C 78.675781 454.296875 64.710938 495.523438 74.503906 536.683594 C 89.03125 597.757812 150.320312 635.507812 211.394531 620.960938 C 261.539062 609.015625 326.125 533.597656 377.058594 464.332031 C 374.925781 495.84375 374.5625 527.695312 376.851562 559.726562 C 379.8125 601.054688 387.226562 642.804688 401.417969 683.117188 C 415.519531 723.382812 436.757812 762.007812 464.699219 795.421875 L 464.898438 795.660156 C 465.175781 795.992188 465.464844 796.320312 465.761719 796.640625 C 477.464844 809.410156 523.707031 767.03125 512.003906 754.265625 C 487.839844 727.898438 468.714844 696.875 455.03125 662.957031 C 441.300781 629.035156 432.894531 592.40625 428.480469 554.898438 C 425.570312 530.195312 423 488.9375 423.101562 463.683594 C 470.203125 535.160156 531.773438 629.03125 580.570312 643.488281 C 640.765625 661.324219 704.015625 626.984375 721.847656 566.792969 C 733.867188 526.230469 722.167969 484.304688 694.855469 455.796875 C 733.289062 446.765625 765.9375 417.980469 777.957031 377.417969 C 795.78125 317.222656 761.71875 253.003906 701.25 236.136719 Z M 701.25 236.136719 " fill-opacity="1" fill-rule="nonzero"/><g clip-path="url(#8e05db07b9)"><path fill="#a58f64" d="M 360.398438 283.5 L 526.457031 283.5 L 526.457031 425.675781 L 360.398438 425.675781 Z M 360.398438 283.5 " fill-opacity="1" fill-rule="nonzero"/></g></svg>